<svg xmlns="http://www.w3.org/2000/svg" width="128" height="128" viewBox="0 0 128 128" role="img" aria-label="NimbusFlow">
  <defs>
    <linearGradient id="g" x1="0" y1="0" x2="1" y2="1">
      <stop offset="0" stop-color="#1e293b"/>
      <stop offset="0.5" stop-color="#1d4ed8"/>
      <stop offset="1" stop-color="#0ea5e9"/>
    </linearGradient>
    <filter id="s" x="-20%" y="-20%" width="140%" height="140%">
      <feDropShadow dx="0" dy="6" stdDeviation="6" flood-color="#0b1220" flood-opacity="0.18"/>
    </filter>
  </defs>

  <rect x="10" y="10" width="108" height="108" rx="28" fill="url(#g)" filter="url(#s)"/>

  <!-- subtle shield silhouette -->
  <path d="M38,26 C46,22 55,20 64,20 C73,20 82,22 90,26 L90,58 C90,80 78,96 64,108 C50,96 38,80 38,58 Z" fill="none" stroke="#e0f2fe" stroke-opacity="0.3" stroke-width="4" stroke-linejoin="round"/>

  <!-- padlock -->
  <path transform="translate(49,33) scale(1.7)" d="M10 1a4 4 0 00-4 4v2H5a2 2 0 00-2 2v7a2 2 0 002 2h10a2 2 0 002-2V9a2 2 0 00-2-2h-1V5a4 4 0 00-4-4zm2 6V5a2 2 0 10-4 0v2h4z" fill="#ffffff"/>

  <!-- NF monogram -->
  <text x="64" y="97" text-anchor="middle" font-family="system-ui, -apple-system, Segoe UI, Roboto, Arial" font-size="27" font-weight="800" fill="#ffffff">NF</text>
</svg>
